<svg width="62" height="62" viewBox="0 0 62 62" fill="none" xmlns="http://www.w3.org/2000/svg">
<path d="M30.9997 0.142578C13.9589 0.142578 0.142578 13.9589 0.142578 30.9997C0.142578 48.0406 13.9589 61.8569 30.9997 61.8569C48.0406 61.8569 61.8569 48.0406 61.8569 30.9997C61.8569 13.9589 48.0406 0.142578 30.9997 0.142578ZM27.8266 18.8574L44.5537 28.7883C44.9374 29.016 45.2553 29.3396 45.4761 29.7273C45.6969 30.115 45.813 30.5535 45.813 30.9997C45.813 31.4459 45.6969 31.8844 45.4761 32.2721C45.2553 32.6599 44.9374 32.9835 44.5537 33.2111L27.8266 43.142C27.2409 43.4899 26.5736 43.6764 25.8924 43.6827C25.2112 43.689 24.5406 43.5148 23.9486 43.1777C23.3566 42.8407 22.8644 42.353 22.5221 41.764C22.1798 41.1751 21.9996 40.506 21.9997 39.8249L21.9997 22.1746C21.9996 21.4934 22.1798 20.8243 22.5221 20.2354C22.8644 19.6465 23.3566 19.1587 23.9486 18.8217C24.5406 18.4847 25.2112 18.3105 25.8924 18.3167C26.5736 18.323 27.2409 18.5096 27.8266 18.8574V18.8574Z" fill="white"/>
</svg>
